<svg xmlns="http://www.w3.org/2000/svg" width="14" height="14" viewBox="0 0 14 14">
  <path d="M 1 0.40039062 A 0.60006002 0.60006002 0 0 0 0.40039062 1 L 0.40039062 4 A 0.60000002 0.60000002 0 0 0 1 4.5996094 A 0.60000002 0.60000002 0 0 0 1.5996094 4 L 1.5996094 1.5996094 L 12.400391 1.5996094 L 12.400391 4 A 0.60000002 0.60000002 0 0 0 13 4.5996094 A 0.60000002 0.60000002 0 0 0 13.599609 4 L 13.599609 1 A 0.60006002 0.60006002 0 0 0 13 0.40039062 L 1 0.40039062 z M 7 2.9003906 C 6.1166667 2.9003906 5.3223902 3.2049536 4.7636719 3.7636719 C 4.3343115 4.1930322 4.0555191 4.7612506 3.9492188 5.4023438 A 0.60006002 0.60006002 0 0 0 3.4121094 5.8808594 C 3.3622744 6.1250007 3.3622744 6.3749993 3.4121094 6.6191406 A 0.60006002 0.60006002 0 0 0 4 7.0996094 L 4.1679688 7.0996094 L 5.6191406 12.652344 A 0.60006002 0.60006002 0 0 0 5.6855469 12.808594 C 5.9868695 13.310798 6.5211538 13.474609 7 13.474609 C 7.4788462 13.474609 8.0131308 13.310798 8.3144531 12.808594 A 0.60006002 0.60006002 0 0 0 8.3808594 12.652344 L 9.8320312 7.0996094 L 10 7.0996094 A 0.60006002 0.60006002 0 0 0 10.587891 6.6191406 C 10.637721 6.3749993 10.637721 6.1250007 10.587891 5.8808594 A 0.60006002 0.60006002 0 0 0 10.050781 5.4023438 C 9.944481 4.7612506 9.6656884 4.1930322 9.2363281 3.7636719 C 8.6776098 3.2049536 7.8833333 2.9003906 7 2.9003906 z M 7 4.0996094 C 7.6166667 4.0996094 8.0723902 4.2950464 8.3886719 4.6113281 C 8.568406 4.7910622 8.591679 5.1267715 8.6796875 5.4003906 L 5.3203125 5.4003906 C 5.408321 5.1267715 5.431594 4.7910622 5.6113281 4.6113281 C 5.9276098 4.2950464 6.3833333 4.0996094 7 4.0996094 z M 5.4082031 7.0996094 L 8.5917969 7.0996094 L 7.2578125 12.199219 C 7.2392748 12.21103 7.154781 12.275391 7 12.275391 C 6.845219 12.275391 6.7607252 12.211029 6.7421875 12.199219 L 5.4082031 7.0996094 z " />
</svg>